<svg xmlns="http://www.w3.org/2000/svg" width="24" height="13.127" viewBox="0 0 24 13.127">
  <g id="air-transport" transform="translate(0 -5.436)">
    <g id="Group_4" data-name="Group 4">
      <path id="Path_5" data-name="Path 5" d="M24,7.675C24,11.827,3.985,16.41,2.47,16.41c-.85,0-1.814-.2-1.814-.979,0-.262.3-.64.832-1.1h0l-1.4-2.5a.642.642,0,0,1,.321-.91l.241-.1a1.6,1.6,0,0,1,1.347.071l2.551,1.35c.993-.589,2.12-1.206,3.307-1.813L2.879,7.216a.642.642,0,0,1,.008-1.081l.407-.255a2.887,2.887,0,0,1,2.272-.347l8.269,2.181a20.7,20.7,0,0,1,6.289-1.722c.368,0,.737.01,1.094.035l-2.5,1.127-.06.84,3.855-1.772C23.438,6.442,24,6.853,24,7.675ZM13.941,14.842l3.084,3.5a.642.642,0,0,0,.752.158l.413-.192a1.925,1.925,0,0,0,1.1-1.969l-.386-3.3a.321.321,0,0,0-.425-.265l-4.4,1.551A.321.321,0,0,0,13.941,14.842Z" fill="#fff"/>
    </g>
  </g>
</svg>
