<svg xmlns="http://www.w3.org/2000/svg" width="23.986" height="24" viewBox="0 0 23.986 24">
  <g id="done" transform="translate(-0.007)">
    <g id="Group_6" data-name="Group 6">
      <g id="Group_5" data-name="Group 5">
        <path id="Path_6" data-name="Path 6" d="M23.08,7.41a1,1,0,1,0-1.847.764A10,10,0,1,1,15.856,2.78,1,1,0,0,0,16.628.937,11.992,11.992,0,0,0,.92,16.589,11.993,11.993,0,0,0,23.08,7.41Z" fill="#fff"/>
      </g>
    </g>
    <g id="Group_8" data-name="Group 8">
      <g id="Group_7" data-name="Group 7">
        <path id="Path_7" data-name="Path 7" d="M20.507,3.547a1,1,0,0,0-1.413,0l-7.065,7.07L10.206,8.794a1,1,0,0,0-1.413,1.413l2.53,2.53a1,1,0,0,0,1.414,0L20.507,4.96A1,1,0,0,0,20.507,3.547Z" fill="#fff"/>
      </g>
    </g>
    <g id="Group_10" data-name="Group 10">
      <g id="Group_9" data-name="Group 9">
        <path id="Path_8" data-name="Path 8" d="M15.2,13.791a1,1,0,0,0-1.413,0L12,15.583l-1.792-1.791A1,1,0,0,0,8.792,15.2l2.5,2.5a1,1,0,0,0,1.413,0l2.5-2.5A1,1,0,0,0,15.2,13.791Z" fill="#fff"/>
      </g>
    </g>
  </g>
</svg>
