<svg width="1723" height="177" viewBox="0 0 1723 177" fill="none" xmlns="http://www.w3.org/2000/svg">
<g clip-path="url(#clip0)">
<path fill-rule="evenodd" clip-rule="evenodd" d="M599.893 131.384V151.525H646.37L638.164 38.7402H595.864L513.281 151.525H541.479L555.577 131.384H599.893ZM567.665 113.257L597.88 70.9656V113.257H567.665Z" fill="white"/>
<path fill-rule="evenodd" clip-rule="evenodd" d="M688.522 38.7402L652.264 151.525H678.45L696.577 95.1327L750.965 151.525H775.134L811.392 38.7402H785.206L765.063 99.1577L710.678 38.7402H688.522Z" fill="white"/>
<path fill-rule="evenodd" clip-rule="evenodd" d="M806.408 94.9233C794.988 129.174 817.828 152.008 853.987 152.008C890.146 152.008 926.305 129.174 935.819 94.9233C947.239 60.6747 924.402 37.8384 888.243 37.8384C853.987 37.8384 817.828 60.6747 806.408 94.9233ZM857.791 136.786C840.665 136.786 839.153 116.578 848.277 91.1196C856.394 68.4581 871.114 53.0605 884.436 53.0605C897.758 53.0605 903.465 68.2858 895.856 91.1196C888.243 115.854 874.921 136.786 857.791 136.786Z" fill="white"/>
<path fill-rule="evenodd" clip-rule="evenodd" d="M1057.95 38.7402H958.105L944.007 56.8646H978.248L948.036 151.525H990.336L1018.53 56.8646H1041.99L1057.95 38.7402Z" fill="white"/>
<path fill-rule="evenodd" clip-rule="evenodd" d="M495.172 91.3503C490.001 106.861 483.063 122.358 473.163 130.66C472.302 127.454 470.458 124.17 465.911 120.815C460.891 117.215 452.408 117.061 444.131 118.134C444.352 110.298 446.498 100.835 449.662 91.3503C455.35 68.5964 470.522 51.5307 483.795 51.5307C497.071 51.5307 502.76 68.5964 495.172 91.3503ZM457.246 136.853C450.271 136.853 446.504 133.018 444.959 126.971C450.905 126.373 456.471 127.099 457.905 131.455C458.505 133.27 458.927 135.016 459.263 136.705C458.595 136.76 457.936 136.853 457.246 136.853ZM489.484 38.2598C453.454 38.2598 417.425 61.013 406.045 95.1407C396.564 129.273 417.425 152.023 453.454 152.023C456.228 152.023 458.995 151.844 461.756 151.58C462.802 155.082 464.631 158.353 468.358 161.512C478.667 170.249 498.343 169.092 498.343 169.092L514.133 150.888C514.133 150.888 493.71 157.615 482.013 150.231C480.927 149.546 480.04 148.854 479.24 148.157C505.367 140.313 527.81 121.006 534.997 95.1407C546.377 61.013 523.62 38.2598 489.484 38.2598Z" fill="white"/>
<path fill-rule="evenodd" clip-rule="evenodd" d="M1680.22 91.3503C1675.04 106.858 1668.11 122.354 1658.21 130.66C1657.34 127.454 1655.5 124.17 1650.96 120.815C1645.93 117.215 1637.45 117.061 1629.17 118.134C1629.39 110.298 1631.54 100.835 1634.7 91.3503C1640.39 68.5964 1655.56 51.5307 1668.84 51.5307C1682.11 51.5307 1687.8 68.5964 1680.22 91.3503ZM1642.29 136.853C1635.32 136.853 1631.55 133.018 1630 126.971C1635.95 126.373 1641.51 127.099 1642.95 131.455C1643.55 133.27 1643.97 135.016 1644.31 136.705C1643.64 136.76 1642.98 136.853 1642.29 136.853ZM1674.53 38.2598C1638.5 38.2598 1602.47 61.013 1591.09 95.1407C1581.61 129.273 1602.47 152.023 1638.5 152.023C1641.27 152.023 1644.04 151.844 1646.8 151.58C1647.85 155.082 1649.67 158.353 1653.4 161.512C1663.71 170.249 1683.38 169.092 1683.38 169.092L1699.17 150.888C1699.17 150.888 1678.75 157.615 1667.06 150.231C1665.97 149.546 1665.08 148.854 1664.28 148.157C1690.41 140.313 1712.85 121.006 1720.04 95.1407C1731.42 61.013 1708.66 38.2598 1674.53 38.2598Z" fill="white"/>
<path fill-rule="evenodd" clip-rule="evenodd" d="M1161.85 37.7119C1140.92 37.7119 1107.84 43.7349 1099.43 74.3857C1092.58 99.3389 1114.32 106.076 1127.6 110.006C1141.98 114.26 1154.24 117.615 1152.33 127.128C1150.43 134.738 1137.11 134.738 1131.4 134.738C1116.18 134.738 1102.86 125.225 1097.15 117.615L1078.13 130.934C1083.83 138.543 1097.15 151.86 1125.7 151.86C1154.24 151.86 1182.78 140.445 1192.3 115.712C1199.9 90.9799 1177.56 82.9755 1161.85 77.6628C1144.75 71.8839 1133.13 71.9091 1135.21 64.3461C1137.14 57.3136 1148.53 54.833 1158.04 54.833C1165.65 54.833 1178.97 58.637 1186.59 68.1501L1203.71 54.833C1196.1 43.4179 1182.78 37.7119 1161.85 37.7119Z" fill="white"/>
<path fill-rule="evenodd" clip-rule="evenodd" d="M1226.31 38.7402L1192.07 151.525H1232.36L1248.47 103.19H1288.75L1274.66 151.525H1314.94L1351.2 38.7402H1308.9L1294.8 85.0617H1252.5L1268.61 38.7402H1226.31Z" fill="white"/>
<path fill-rule="evenodd" clip-rule="evenodd" d="M1406.63 131.384L1408.64 151.525H1452.95V149.511L1444.9 38.7402H1404.61L1320.52 151.525H1322.03H1350.22L1364.33 131.384H1406.63ZM1374.4 113.257L1404.61 70.9656L1406.63 113.257H1374.4Z" fill="white"/>
<path fill-rule="evenodd" clip-rule="evenodd" d="M1518.38 113.257L1534.5 151.525H1581.91L1556.66 103.19C1570.75 97.1452 1586.87 91.1041 1592.91 68.951C1600.97 42.7689 1574.78 38.7402 1548.6 38.7402C1536.51 38.7402 1492.2 38.7402 1492.2 38.7402L1457.96 151.525H1498.24L1512.34 109.231C1512.34 109.231 1516.37 109.231 1518.38 113.257ZM1516.37 95.1327L1528.45 56.8646C1528.45 56.8646 1536.51 56.8646 1538.53 56.8646C1548.6 56.8646 1553.51 62.9769 1550.61 74.9931C1547.63 87.3736 1536.51 95.1327 1516.37 95.1327Z" fill="white"/>
<path d="M302.044 130.639C286.983 130.465 76.1321 126.777 0 57.7291C3.5497 57.1936 6.68077 55.6024 6.68077 55.6024C6.68077 55.6024 15.3765 42.156 27.9895 42.5192C37.2023 42.7839 61.3727 49.0316 61.3727 49.0316C61.3727 49.0316 48.9906 31.1349 58.7203 19.0735C86.5438 -12.1526 167.351 5.04856 190.392 8.80024C213.434 12.555 262.89 21.6126 285.225 24.3425C307.56 27.0724 353.603 29.6238 361.981 29.513C370.36 29.3991 357.302 39.5462 328.765 39.3C300.231 39.0599 274.655 36.0469 274.655 36.0469C274.655 36.0469 274.913 43.6456 262.456 45.8708C240.315 49.3209 212.772 42.7316 212.772 42.7316C212.772 42.7316 220.75 51.6599 204.541 57.0705C185.782 63.3335 163.978 60.0065 163.978 60.0065C163.978 60.0065 170.175 66.4235 164.61 71.1985C157.2 77.5607 136.532 79.8425 136.532 79.8425C136.532 79.8425 166.2 98.4251 201.462 98.6523C239.983 98.9025 286.358 86.9728 286.358 86.9728L285.197 92.4671L243.753 101.045C243.753 101.045 237.708 102.42 234.931 104.178C231.986 105.981 230.807 107.625 230.653 110.468C229.954 119.649 242.987 120.877 242.987 120.877C242.987 120.877 269.351 125.564 309.893 122.666C307.369 125.453 304.75 128.113 302.044 130.639Z" fill="white"/>
<path d="M232.817 168.525C182.882 159.16 84.2328 134.298 7.38415 73.4918C6.65063 72.9483 5.96051 72.4217 5.37598 71.9443C5.48556 72.0887 5.6213 72.2484 5.7355 72.3977C63.0897 129.916 139.911 162.315 185.782 176.097C205.132 174.758 226.017 169.839 232.817 168.525Z" fill="white"/>
<path d="M4.74243 71.147C86.2961 130.898 224.078 146.853 276.877 150.878C263.161 158.744 248.26 164.473 232.817 168.525C182.31 159.052 81.9543 133.48 4.74243 71.147Z" fill="#4582CB"/>
<path d="M137.118 176.294C98.0674 156.473 45.1405 124.702 4.74243 71.147C62.3396 129.429 140.4 162.244 186.49 176.048C169.679 177.325 152.968 177.226 137.118 176.294Z" fill="#43B53B"/>
</g>
<defs>
<clipPath id="clip0">
<rect width="1723" height="177" fill="white"/>
</clipPath>
</defs>
</svg>
