<svg xmlns="http://www.w3.org/2000/svg" width="24" height="17.619" viewBox="0 0 24 17.619">
  <g id="airplane-ticket" transform="translate(0 -3.191)">
    <g id="Group_12" data-name="Group 12">
      <g id="Group_11" data-name="Group 11">
        <path id="Path_9" data-name="Path 9" d="M23.015,3.191H.986A.987.987,0,0,0,0,4.176V13.4a.987.987,0,0,0,.986.986H23.015A.987.987,0,0,0,24,13.4V4.176A.987.987,0,0,0,23.015,3.191ZM7.979,7.622l-.668.668.576,1.6a.7.7,0,1,1-1.323.476l-.352-.979L5.9,9.706v.647a.7.7,0,1,1-1.406,0v-.236H4.23a.7.7,0,1,1,0-1.406H4.9l.317-.317L4.24,8.042A.7.7,0,0,1,4.716,6.72l1.6.576.668-.668a.7.7,0,1,1,.994.994Zm12.254,2.964H11.753a.7.7,0,0,1,0-1.406h8.481a.7.7,0,1,1,0,1.406Zm0-2.5h-4.1a.7.7,0,0,1,0-1.406h4.1a.7.7,0,1,1,0,1.406Z" fill="#fff"/>
      </g>
    </g>
    <g id="Group_14" data-name="Group 14">
      <g id="Group_13" data-name="Group 13">
        <path id="Path_10" data-name="Path 10" d="M4.493,15.715,19.3,20.763a.874.874,0,0,0,1.125-.6l1.221-4.451H4.493Z" fill="#fff"/>
      </g>
    </g>
  </g>
</svg>
